<mxfile host="app.diagrams.net" modified="2023-05-05T17:05:01.128Z" agent="Mozilla/5.0 (X11; Ubuntu; Linux x86_64; rv:109.0) Gecko/20100101 Firefox/112.0" etag="kOXrlQ2tUChyMA8zGr-8" version="21.2.9" type="github">
  <diagram name="Page-1" id="R69GroRH6VKOCnM6CNp0">
    <mxGraphModel dx="1362" dy="795" grid="1" gridSize="10" guides="1" tooltips="1" connect="1" arrows="1" fold="1" page="1" pageScale="1" pageWidth="850" pageHeight="1100" math="0" shadow="0">
      <root>
        <mxCell id="0" />
        <mxCell id="1" parent="0" />
        <mxCell id="UiJhHHOjoIFwlzoQyJ_L-1" value="&lt;div&gt;Internet Host&lt;/div&gt;&lt;div&gt;10.50.38.232&lt;br&gt;&lt;/div&gt;&lt;div&gt;eth:10.10.0.40&lt;/div&gt;&lt;div&gt;ports:21,22,23,80&lt;/div&gt;&lt;div&gt;&lt;br&gt;&lt;/div&gt;" style="whiteSpace=wrap;html=1;aspect=fixed;rotation=0;" vertex="1" parent="1">
          <mxGeometry x="350" y="340" width="120" height="120" as="geometry" />
        </mxCell>
      </root>
    </mxGraphModel>
  </diagram>
</mxfile>
